<mxfile host="app.diagrams.net" agent="Mozilla/5.0 (Macintosh; Intel Mac OS X 10_15_7) AppleWebKit/537.36 (KHTML, like Gecko) Chrome/133.0.0.0 Safari/537.36" version="26.0.16">
  <diagram name="第 1 页" id="4TSQwR1wQjq3wxDg7jX3">
    <mxGraphModel dx="2874" dy="1121" grid="1" gridSize="10" guides="1" tooltips="1" connect="1" arrows="1" fold="1" page="0" pageScale="1" pageWidth="827" pageHeight="1169" math="0" shadow="0">
      <root>
        <mxCell id="0" />
        <mxCell id="1" parent="0" />
        <mxCell id="7gAko9oUTMUhFa8mIw9l-7" value="" style="edgeStyle=orthogonalEdgeStyle;rounded=0;orthogonalLoop=1;jettySize=auto;html=1;" edge="1" parent="1" source="7gAko9oUTMUhFa8mIw9l-1" target="7gAko9oUTMUhFa8mIw9l-5">
          <mxGeometry relative="1" as="geometry" />
        </mxCell>
        <mxCell id="7gAko9oUTMUhFa8mIw9l-1" value="«launcher»&lt;br&gt;&lt;b&gt;Component&lt;/b&gt;" style="html=1;dropTarget=0;whiteSpace=wrap;" vertex="1" parent="1">
          <mxGeometry x="-410" y="480" width="180" height="90" as="geometry" />
        </mxCell>
        <mxCell id="7gAko9oUTMUhFa8mIw9l-2" value="" style="shape=module;jettyWidth=8;jettyHeight=4;" vertex="1" parent="7gAko9oUTMUhFa8mIw9l-1">
          <mxGeometry x="1" width="20" height="20" relative="1" as="geometry">
            <mxPoint x="-27" y="7" as="offset" />
          </mxGeometry>
        </mxCell>
        <mxCell id="7gAko9oUTMUhFa8mIw9l-9" value="" style="edgeStyle=orthogonalEdgeStyle;rounded=0;orthogonalLoop=1;jettySize=auto;html=1;" edge="1" parent="1" source="7gAko9oUTMUhFa8mIw9l-5" target="7gAko9oUTMUhFa8mIw9l-8">
          <mxGeometry relative="1" as="geometry" />
        </mxCell>
        <mxCell id="7gAko9oUTMUhFa8mIw9l-5" value="«user-interface-web-console»&lt;br&gt;&lt;b&gt;Component&lt;/b&gt;" style="html=1;dropTarget=0;whiteSpace=wrap;" vertex="1" parent="1">
          <mxGeometry x="-150" y="480" width="180" height="90" as="geometry" />
        </mxCell>
        <mxCell id="7gAko9oUTMUhFa8mIw9l-6" value="" style="shape=module;jettyWidth=8;jettyHeight=4;" vertex="1" parent="7gAko9oUTMUhFa8mIw9l-5">
          <mxGeometry x="1" width="20" height="20" relative="1" as="geometry">
            <mxPoint x="-27" y="7" as="offset" />
          </mxGeometry>
        </mxCell>
        <mxCell id="7gAko9oUTMUhFa8mIw9l-38" style="edgeStyle=orthogonalEdgeStyle;rounded=0;orthogonalLoop=1;jettySize=auto;html=1;entryX=0;entryY=0.5;entryDx=0;entryDy=0;" edge="1" parent="1" source="7gAko9oUTMUhFa8mIw9l-8" target="7gAko9oUTMUhFa8mIw9l-36">
          <mxGeometry relative="1" as="geometry" />
        </mxCell>
        <mxCell id="7gAko9oUTMUhFa8mIw9l-8" value="" style="whiteSpace=wrap;html=1;fillColor=none;dashed=1;dashPattern=8 8;" vertex="1" parent="1">
          <mxGeometry x="150" y="320" width="410" height="410" as="geometry" />
        </mxCell>
        <mxCell id="7gAko9oUTMUhFa8mIw9l-20" value="LiveController" style="swimlane;fontStyle=1;align=center;verticalAlign=top;childLayout=stackLayout;horizontal=1;startSize=26;horizontalStack=0;resizeParent=1;resizeParentMax=0;resizeLast=0;collapsible=1;marginBottom=0;whiteSpace=wrap;html=1;" vertex="1" parent="1">
          <mxGeometry x="180" y="350" width="160" height="150" as="geometry" />
        </mxCell>
        <mxCell id="7gAko9oUTMUhFa8mIw9l-21" value="+ queryService&lt;div&gt;+ commandService&lt;/div&gt;" style="text;strokeColor=none;fillColor=none;align=left;verticalAlign=top;spacingLeft=4;spacingRight=4;overflow=hidden;rotatable=0;points=[[0,0.5],[1,0.5]];portConstraint=eastwest;whiteSpace=wrap;html=1;" vertex="1" parent="7gAko9oUTMUhFa8mIw9l-20">
          <mxGeometry y="26" width="160" height="44" as="geometry" />
        </mxCell>
        <mxCell id="7gAko9oUTMUhFa8mIw9l-22" value="" style="line;strokeWidth=1;fillColor=none;align=left;verticalAlign=middle;spacingTop=-1;spacingLeft=3;spacingRight=3;rotatable=0;labelPosition=right;points=[];portConstraint=eastwest;strokeColor=inherit;" vertex="1" parent="7gAko9oUTMUhFa8mIw9l-20">
          <mxGeometry y="70" width="160" height="8" as="geometry" />
        </mxCell>
        <mxCell id="7gAko9oUTMUhFa8mIw9l-23" value="+ pageList(query)&lt;div&gt;+ create(command)&lt;/div&gt;&lt;div&gt;+ modifyBasic(command)&lt;/div&gt;&lt;div&gt;+ get(query)&lt;/div&gt;" style="text;strokeColor=none;fillColor=none;align=left;verticalAlign=top;spacingLeft=4;spacingRight=4;overflow=hidden;rotatable=0;points=[[0,0.5],[1,0.5]];portConstraint=eastwest;whiteSpace=wrap;html=1;" vertex="1" parent="7gAko9oUTMUhFa8mIw9l-20">
          <mxGeometry y="78" width="160" height="72" as="geometry" />
        </mxCell>
        <mxCell id="7gAko9oUTMUhFa8mIw9l-24" value="RoomController" style="swimlane;fontStyle=1;align=center;verticalAlign=top;childLayout=stackLayout;horizontal=1;startSize=26;horizontalStack=0;resizeParent=1;resizeParentMax=0;resizeLast=0;collapsible=1;marginBottom=0;whiteSpace=wrap;html=1;" vertex="1" parent="1">
          <mxGeometry x="380" y="350" width="160" height="150" as="geometry" />
        </mxCell>
        <mxCell id="7gAko9oUTMUhFa8mIw9l-25" value="+ queryService&lt;div&gt;+ commandService&lt;/div&gt;" style="text;strokeColor=none;fillColor=none;align=left;verticalAlign=top;spacingLeft=4;spacingRight=4;overflow=hidden;rotatable=0;points=[[0,0.5],[1,0.5]];portConstraint=eastwest;whiteSpace=wrap;html=1;" vertex="1" parent="7gAko9oUTMUhFa8mIw9l-24">
          <mxGeometry y="26" width="160" height="44" as="geometry" />
        </mxCell>
        <mxCell id="7gAko9oUTMUhFa8mIw9l-26" value="" style="line;strokeWidth=1;fillColor=none;align=left;verticalAlign=middle;spacingTop=-1;spacingLeft=3;spacingRight=3;rotatable=0;labelPosition=right;points=[];portConstraint=eastwest;strokeColor=inherit;" vertex="1" parent="7gAko9oUTMUhFa8mIw9l-24">
          <mxGeometry y="70" width="160" height="8" as="geometry" />
        </mxCell>
        <mxCell id="7gAko9oUTMUhFa8mIw9l-27" value="+ pageList(query)&lt;div&gt;+ create(command)&lt;/div&gt;&lt;div&gt;+ modify(command)&lt;/div&gt;&lt;div&gt;&lt;br&gt;&lt;/div&gt;" style="text;strokeColor=none;fillColor=none;align=left;verticalAlign=top;spacingLeft=4;spacingRight=4;overflow=hidden;rotatable=0;points=[[0,0.5],[1,0.5]];portConstraint=eastwest;whiteSpace=wrap;html=1;" vertex="1" parent="7gAko9oUTMUhFa8mIw9l-24">
          <mxGeometry y="78" width="160" height="72" as="geometry" />
        </mxCell>
        <mxCell id="7gAko9oUTMUhFa8mIw9l-28" value="StreamerController" style="swimlane;fontStyle=1;align=center;verticalAlign=top;childLayout=stackLayout;horizontal=1;startSize=26;horizontalStack=0;resizeParent=1;resizeParentMax=0;resizeLast=0;collapsible=1;marginBottom=0;whiteSpace=wrap;html=1;" vertex="1" parent="1">
          <mxGeometry x="180" y="550" width="160" height="150" as="geometry" />
        </mxCell>
        <mxCell id="7gAko9oUTMUhFa8mIw9l-29" value="+ queryService&lt;div&gt;+ commandService&lt;/div&gt;" style="text;strokeColor=none;fillColor=none;align=left;verticalAlign=top;spacingLeft=4;spacingRight=4;overflow=hidden;rotatable=0;points=[[0,0.5],[1,0.5]];portConstraint=eastwest;whiteSpace=wrap;html=1;" vertex="1" parent="7gAko9oUTMUhFa8mIw9l-28">
          <mxGeometry y="26" width="160" height="44" as="geometry" />
        </mxCell>
        <mxCell id="7gAko9oUTMUhFa8mIw9l-30" value="" style="line;strokeWidth=1;fillColor=none;align=left;verticalAlign=middle;spacingTop=-1;spacingLeft=3;spacingRight=3;rotatable=0;labelPosition=right;points=[];portConstraint=eastwest;strokeColor=inherit;" vertex="1" parent="7gAko9oUTMUhFa8mIw9l-28">
          <mxGeometry y="70" width="160" height="8" as="geometry" />
        </mxCell>
        <mxCell id="7gAko9oUTMUhFa8mIw9l-31" value="+ pageList(query)&lt;div&gt;+ create(command)&lt;/div&gt;&lt;div&gt;+ modify(command)&lt;/div&gt;&lt;div&gt;&lt;br&gt;&lt;/div&gt;" style="text;strokeColor=none;fillColor=none;align=left;verticalAlign=top;spacingLeft=4;spacingRight=4;overflow=hidden;rotatable=0;points=[[0,0.5],[1,0.5]];portConstraint=eastwest;whiteSpace=wrap;html=1;" vertex="1" parent="7gAko9oUTMUhFa8mIw9l-28">
          <mxGeometry y="78" width="160" height="72" as="geometry" />
        </mxCell>
        <mxCell id="7gAko9oUTMUhFa8mIw9l-32" value="UserController" style="swimlane;fontStyle=1;align=center;verticalAlign=top;childLayout=stackLayout;horizontal=1;startSize=26;horizontalStack=0;resizeParent=1;resizeParentMax=0;resizeLast=0;collapsible=1;marginBottom=0;whiteSpace=wrap;html=1;" vertex="1" parent="1">
          <mxGeometry x="380" y="550" width="160" height="150" as="geometry" />
        </mxCell>
        <mxCell id="7gAko9oUTMUhFa8mIw9l-33" value="+ queryService&lt;div&gt;+ commandService&lt;/div&gt;" style="text;strokeColor=none;fillColor=none;align=left;verticalAlign=top;spacingLeft=4;spacingRight=4;overflow=hidden;rotatable=0;points=[[0,0.5],[1,0.5]];portConstraint=eastwest;whiteSpace=wrap;html=1;" vertex="1" parent="7gAko9oUTMUhFa8mIw9l-32">
          <mxGeometry y="26" width="160" height="44" as="geometry" />
        </mxCell>
        <mxCell id="7gAko9oUTMUhFa8mIw9l-34" value="" style="line;strokeWidth=1;fillColor=none;align=left;verticalAlign=middle;spacingTop=-1;spacingLeft=3;spacingRight=3;rotatable=0;labelPosition=right;points=[];portConstraint=eastwest;strokeColor=inherit;" vertex="1" parent="7gAko9oUTMUhFa8mIw9l-32">
          <mxGeometry y="70" width="160" height="8" as="geometry" />
        </mxCell>
        <mxCell id="7gAko9oUTMUhFa8mIw9l-35" value="&lt;div&gt;+ login&lt;/div&gt;&lt;div&gt;+ info&lt;/div&gt;" style="text;strokeColor=none;fillColor=none;align=left;verticalAlign=top;spacingLeft=4;spacingRight=4;overflow=hidden;rotatable=0;points=[[0,0.5],[1,0.5]];portConstraint=eastwest;whiteSpace=wrap;html=1;" vertex="1" parent="7gAko9oUTMUhFa8mIw9l-32">
          <mxGeometry y="78" width="160" height="72" as="geometry" />
        </mxCell>
        <mxCell id="7gAko9oUTMUhFa8mIw9l-36" value="«application-service»&lt;br&gt;&lt;b&gt;Component&lt;/b&gt;" style="html=1;dropTarget=0;whiteSpace=wrap;" vertex="1" parent="1">
          <mxGeometry x="660" y="480" width="180" height="90" as="geometry" />
        </mxCell>
        <mxCell id="7gAko9oUTMUhFa8mIw9l-37" value="" style="shape=module;jettyWidth=8;jettyHeight=4;" vertex="1" parent="7gAko9oUTMUhFa8mIw9l-36">
          <mxGeometry x="1" width="20" height="20" relative="1" as="geometry">
            <mxPoint x="-27" y="7" as="offset" />
          </mxGeometry>
        </mxCell>
      </root>
    </mxGraphModel>
  </diagram>
</mxfile>
